<svg xmlns="http://www.w3.org/2000/svg" viewBox="0 0 80 100" x="0px" y="0px"><title>48_science_space</title><path d="M17.53,42.17q.92,0,2-.08l.21.23A16,16,0,0,0,47,31.37c4-3.1,5.48-5.91,4.52-8.36s-4-3.49-9-3.1l-.21-.23A16,16,0,0,0,15,30.63c-4,3.1-5.48,5.91-4.52,8.36C11.32,41.1,13.69,42.17,17.53,42.17Zm22-2.68A12,12,0,0,1,24.8,41.26a64.53,64.53,0,0,0,17.72-6.91A11.92,11.92,0,0,1,39.49,39.49Zm8.28-15.05c0,.21-.26,1-1.4,2.14a15.91,15.91,0,0,0-1.06-2.71A4.65,4.65,0,0,1,47.76,24.43ZM22.51,22.51A12,12,0,0,1,42.88,29.4a58,58,0,0,1-21.71,8.46A12,12,0,0,1,22.51,22.51ZM15.63,35.43a15.92,15.92,0,0,0,1.06,2.71,4.65,4.65,0,0,1-2.46-.57C14.22,37.36,14.5,36.61,15.63,35.43Z"/><path d="M56.49,41.49a8,8,0,1,0,11.31,0A7.95,7.95,0,0,0,56.49,41.49Zm9.66,5.66A4,4,0,1,1,65,44.31,4,4,0,0,1,66.14,47.14Z"/><path d="M37,67a2,2,0,0,0,2-2V63h2a2,2,0,0,0,0-4H39V57a2,2,0,0,0-4,0v2H33a2,2,0,0,0,0,4h2v2A2,2,0,0,0,37,67Z"/><text x="0" y="95" fill="#000000" font-size="5px" font-weight="bold" font-family="'Helvetica Neue', Helvetica, Arial-Unicode, Arial, Sans-serif">Created by Weltenraser</text><text x="0" y="100" fill="#000000" font-size="5px" font-weight="bold" font-family="'Helvetica Neue', Helvetica, Arial-Unicode, Arial, Sans-serif">from the Noun Project</text></svg>